<?xml version="1.0" encoding="utf-8"?>
<!-- Generator: Adobe Illustrator 19.1.1, SVG Export Plug-In . SVG Version: 6.00 Build 0)  -->
<svg version="1.1" id="Layer_1" xmlns="http://www.w3.org/2000/svg" xmlns:xlink="http://www.w3.org/1999/xlink" x="0px" y="0px"
	 viewBox="-255 334 100 100.5" style="enable-background:new -255 334 100 100.5;" xml:space="preserve">
<g>
	<path d="M-165.4,363.3c-0.1-1.1-1.1-2-2.2-2h-11.3c-1.2,0-2.2,1-2.2,2.2c0,1.2,1,2.2,2.2,2.2h9.3l5.8,60.8h-82.2l5.8-60.8h8.3
		c1.2,0,2.2-1,2.2-2.2c0-1.2-1-2.2-2.2-2.2h-10.3c-1.2,0-2.1,0.9-2.2,2l-6.2,65.2c-0.1,0.6,0.1,1.3,0.6,1.7c0.4,0.5,1,0.7,1.7,0.7
		h87.2c0.6,0,1.2-0.3,1.7-0.7c0.4-0.5,0.6-1.1,0.6-1.7L-165.4,363.3z"/>
	<path d="M-213.8,361.3c-1.2,0-2.2,1-2.2,2.2s1,2.2,2.2,2.2h16.6c1.2,0,2.2-1,2.2-2.2s-1-2.2-2.2-2.2H-213.8z"/>
	<path d="M-222.9,379.4c2.9,0,5.3-2.4,5.3-5.3c0-2.1-1.3-4-3.1-4.8v-12.6c0-8.4,6.8-15.2,15.2-15.2c8.4,0,15.2,6.8,15.2,15.2v12.6
		c-1.8,0.8-3.1,2.7-3.1,4.8c0,2.9,2.4,5.3,5.3,5.3c2.9,0,5.3-2.4,5.3-5.3c0-2.1-1.3-4-3.1-4.8v-12.6c0-10.8-8.8-19.7-19.7-19.7
		c-10.8,0-19.7,8.8-19.7,19.7v12.6c-1.8,0.8-3.1,2.7-3.1,4.8C-228.3,377-225.9,379.4-222.9,379.4z"/>
</g>
</svg>
