<?xml version="1.0" encoding="UTF-8" standalone="no"?>
<svg width="20px" height="20px" viewBox="0 0 20 20" version="1.1" xmlns="http://www.w3.org/2000/svg" xmlns:xlink="http://www.w3.org/1999/xlink">
    <!-- Generator: Sketch 39.1 (31720) - http://www.bohemiancoding.com/sketch -->
    <title>Group 2</title>
    <desc>Created with Sketch.</desc>
    <defs></defs>
    <g id="Page-1" stroke="none" stroke-width="1" fill="none" fill-rule="evenodd">
        <g id="Desktop-HD-Copy" transform="translate(-49.000000, -85.000000)" fill="#FFFFFF">
            <g id="Group-2" transform="translate(49.000000, 85.000000)">
                <path d="M22,11.3998207 C22.5522847,11.3998207 23,10.9521054 23,10.3998207 C23,9.84753592 22.5522847,9.39982067 22,9.39982067 L-2,9.39982067 C-2.55228475,9.39982067 -3,9.84753592 -3,10.3998207 C-3,10.9521054 -2.55228475,11.3998207 -2,11.3998207 L22,11.3998207 Z" id="Line-Copy-3" transform="translate(10.000000, 10.399821) rotate(-315.000000) translate(-10.000000, -10.399821) "></path>
                <path d="M2.22182541,19.5922088 C1.83130112,19.9827331 1.19813614,19.9827331 0.807611845,19.5922088 C0.417087553,19.2016845 0.417087553,18.5685195 0.807611845,18.1779953 L17.7781746,1.20743251 C18.1686989,0.816908218 18.8018639,0.816908218 19.1923882,1.20743251 C19.5829124,1.5979568 19.5829124,2.23112178 19.1923882,2.62164607 L2.22182541,19.5922088 L2.22182541,19.5922088 Z" id="Line-Copy-3"></path>
            </g>
        </g>
    </g>
</svg>