<?xml version="1.0" encoding="UTF-8" standalone="no"?>
<svg width="26px" height="17px" viewBox="0 0 26 17" version="1.1" xmlns="http://www.w3.org/2000/svg" xmlns:xlink="http://www.w3.org/1999/xlink">
    <!-- Generator: Sketch 39.1 (31720) - http://www.bohemiancoding.com/sketch -->
    <title>Group 13</title>
    <desc>Created with Sketch.</desc>
    <defs></defs>
    <g id="Page-1" stroke="none" stroke-width="1" fill="none" fill-rule="evenodd">
        <g id="Group-13" fill="#000000">
            <path d="M25,2.9666342 C25.5522847,2.9666342 26,2.51891895 26,1.9666342 C26,1.41434945 25.5522847,0.966634203 25,0.966634203 L1,0.966634203 C0.44771525,0.966634203 0,1.41434945 0,1.9666342 C0,2.51891895 0.44771525,2.9666342 1,2.9666342 L25,2.9666342 Z" id="Line"></path>
            <path d="M25,9.9666342 C25.5522847,9.9666342 26,9.51891895 26,8.9666342 C26,8.41434945 25.5522847,7.9666342 25,7.9666342 L1,7.9666342 C0.44771525,7.9666342 0,8.41434945 0,8.9666342 C0,9.51891895 0.44771525,9.9666342 1,9.9666342 L25,9.9666342 Z" id="Line-Copy"></path>
            <path d="M25,16.9666342 C25.5522847,16.9666342 26,16.518919 26,15.9666342 C26,15.4143495 25.5522847,14.9666342 25,14.9666342 L1,14.9666342 C0.44771525,14.9666342 0,15.4143495 0,15.9666342 C0,16.518919 0.44771525,16.9666342 1,16.9666342 L25,16.9666342 Z" id="Line-Copy-2"></path>
        </g>
    </g>
</svg>